<?xml version="1.0" encoding="utf-8"?>
<!-- Generator: Adobe Illustrator 22.0.0, SVG Export Plug-In . SVG Version: 6.00 Build 0)  -->
<svg version="1.1" id="Layer_1" xmlns="http://www.w3.org/2000/svg" xmlns:xlink="http://www.w3.org/1999/xlink" x="0px" y="0px"
	 viewBox="0 0 316.1 181.3" style="enable-background:new 0 0 316.1 181.3;" xml:space="preserve">
<style type="text/css">
	.st0{
	stroke:#fff;
	stroke-width:3;
	stroke-miterlimit:10;
	fill:#004E89;
  	animation: dash 5s linear alternate infinite;
	}
	@keyframes dash {
		from{
		
			stroke-dasharray: 90;
			stroke-dashoffset: 0;
		}
	  to {
		  
	  stroke-dasharray: 300;
    stroke-dashoffset: 1000;
  }
}
</style>
<path class="st0" d="M169.2,135.5c-1.5-0.3-3.6-0.7-6.3-1.2c-10.9-2.1-16.3-4.6-16.3-7.3s3.8-4.6,11.4-5.8c2.2-0.4,4-0.7,5.4-0.9
	c6.1-1.1,10.9-3.7,14.5-7.9c3.6-4.2,5.4-9.2,5.4-15.1c0-2.9-0.5-5.4-1.4-7.8c-0.9-2.3-2.3-4.5-4.3-6.6h11.9l7.8-11.5h-35.8
	c-11.6,0-20.4,2.2-26.3,6.6c-5.9,4.4-8.9,10.9-8.9,19.4c0,5.6,1.4,10.2,4.2,14s6.8,6.5,12.1,8.1c-3.3,1.4-5.7,2.8-7.3,4.3
	c-1.5,1.5-2.3,3.1-2.3,5c0,1.7,0.6,3.3,1.9,4.7c1.2,1.4,3.2,2.7,5.9,3.9c-6.7,1.2-11.7,3.4-15.2,6.7c-3.4,3.2-5.2,7.3-5.2,12.2
	c0,6.9,2.9,12.2,8.8,15.9c5.9,3.6,14.4,5.5,25.6,5.5c11.4,0,20.1-1.9,26.1-5.7s8.6-9.3,9-16.4C190.4,146.7,185.9,138.4,169.2,135.5z
	 M136.4,106.5c-2.6-2.3-3.9-5.5-3.9-9.7c0-3.9,1.4-7.1,4.1-9.7c2.7-2.5,6.3-3.8,10.6-3.8c4.4,0,8,1.3,10.8,3.8s4.2,5.7,4.2,9.7
	c0,4.1-1.4,7.3-4.1,9.6c-2.7,2.3-6.4,3.5-11,3.5C142.6,109.9,139,108.8,136.4,106.5z M162.5,163.1c-3.7,1.7-8.9,2.6-15.4,2.6
	c-6.7,0-11.8-0.9-15.3-2.6c-3.5-1.8-5.2-4.4-5.2-7.8c0-2.7,1.5-4.9,4.5-6.6c3-1.8,6.9-2.6,11.7-2.6c8.4,0,14.7,0.8,18.9,2.5
	s6.3,4.2,6.3,7.5C168.1,159,166.2,161.4,162.5,163.1z"/>
<path class="st0" d="M296.9,113.6l-18.8-23.2c0,0,12.1-14.5,17.8-20.5s16.8-10.1,16.8-10.1h-25.8l-16.8,21.6l-15.2-19.5l-9.8,7.2
	l17.5,21.5l-8.3,10.6c-5.9,8.4-18,18.7-30.2,22.4h28.1l18.4-23.5l19.1,23.5h11.4c-0.1-0.1,11.8-0.2,11.7-0.2
	C308.2,122.4,299.9,117.4,296.9,113.6z"/>
<path class="st0" d="M257.8,9c-4.8-3.7-11.1-5.6-18.9-5.6c-11.9,0-20.8,3.8-26.6,11.3c-5.9,7.5-9.2,19.3-9.9,35.3c0,0.2,0,0.5-0.1,1
	c-0.3,5.5-3.4,8.2-9.4,8.2H184l-9.6,6.9h27.8v82.8h5.3h13.4h3.2V66.1h17.2l9.6-6.9h-26.8V34.8c0-9.6,1.1-16.1,3.4-19.6
	s6.2-5.2,11.8-5.2c2.5,0,4.8,0.5,6.8,1.6s3,2.2,3,3.4c0,0.3-0.3,0.8-0.9,1.7c-2.2,2.9-3.2,5.8-3.2,8.5c0,2.9,0.9,5.3,2.8,7.2
	c1.9,1.9,4.2,2.9,7,2.9c3.1,0,5.6-1.1,7.5-3.2s2.8-5,2.8-8.5C265,17.5,262.6,12.7,257.8,9z"/>
<path class="st0" d="M124.5,29.9c0-5.6-0.2-9.5-0.6-11.8s-1.3-4.7-2.7-7.2c-2.7-4.5-9.3-7-19.9-7.5c0.6,7.3,0.8,13,0.8,17.2
	c0,15.7-1.6,36.5-4.9,62.5c-1.5,9.2-3.4,17.7-5.7,25.3c-5.6,18.6-13,31.9-22.2,40.2c-7.3,6.4-14.6,9.6-22.2,9.6
	c-7.3,0-12.8-2.6-16.7-8c-3.9-5.3-5.9-14.1-5.9-26.4s1.5-27.9,4.5-47c3-19,4.5-32.8,4.5-41.4s-1.8-15.3-5.4-20.2s-9.6-8.9-18-11.9
	c1.5,4.2,2.3,10.1,2.3,17.9c0,7.7-1.6,24.5-4.7,50.3S3,115.2,3,125.1c0,17.4,2.9,30.2,8.8,38.2s14.6,12,26.2,12
	c23.2,0,40.7-13.9,52.5-41.6c-0.3,2.7-0.4,6.1-0.4,10.5c0,8.8,1.8,15.8,5.3,21c3.6,5.2,9.7,9.4,18.3,12.4c-2-4.6-2.9-13.2-2.9-25.8
	s2.3-34.7,6.9-66.2C122.2,54,124.5,35.5,124.5,29.9z"/>
<polyline class="st0" points="107,55.2 61.5,55.2 49.4,71.4 105.1,71.4 "/>
</svg>
